<svg width="1440" height="147" viewBox="0 0 1440 147" fill="none" xmlns="http://www.w3.org/2000/svg">
<path fill-rule="evenodd" clip-rule="evenodd" d="M0 127.712L30.6383 119.054C58.7234 109.313 120 91.9962 178.723 97.4078C240 103.902 298.723 134.206 360 142.865C418.723 152.606 480 140.7 538.723 115.807C600 90.9139 658.723 55.1978 720 48.7039C778.723 42.2101 840 67.1031 898.723 94.1609C960 122.301 1018.72 152.606 1080 146.112C1138.72 140.7 1200 97.4078 1258.72 82.2555C1320 67.1031 1378.72 79.0085 1409.36 85.5024L1440 90.9139V0H1409.36C1378.72 0 1320 0 1258.72 0C1200 0 1138.72 0 1080 0C1018.72 0 960 0 898.723 0C840 0 778.723 0 720 0C658.723 0 600 0 538.723 0C480 0 418.723 0 360 0C298.723 0 240 0 178.723 0C120 0 58.7234 0 30.6383 0H0V127.712Z" fill="#B5F7F5"/>
</svg>
