<svg width="1440" height="147" viewBox="0 0 1440 147" fill="none" xmlns="http://www.w3.org/2000/svg">
<path fill-rule="evenodd" clip-rule="evenodd" d="M1440 19.2876L1409.36 27.946C1381.28 37.6868 1320 55.0038 1261.28 49.5922C1200 43.0984 1141.28 12.7937 1080 4.13524C1021.28 -5.60553 960 6.29986 901.277 31.193C840 56.0861 781.277 91.8022 720 98.2961C661.277 104.79 600 79.8969 541.277 52.8391C480 24.6991 421.277 -5.60553 360 0.888319C301.277 6.29986 240 49.5922 181.277 64.7445C120 79.8969 61.2766 67.9915 30.6383 61.4976L0 56.0861V147H30.6383C61.2766 147 120 147 181.277 147C240 147 301.277 147 360 147C421.277 147 480 147 541.277 147C600 147 661.277 147 720 147C781.277 147 840 147 901.277 147C960 147 1021.28 147 1080 147C1141.28 147 1200 147 1261.28 147C1320 147 1381.28 147 1409.36 147H1440V19.2876Z" fill="#B5F7F5"/>
</svg>
