<svg width="1440" height="185" viewBox="0 0 1440 185" fill="none" xmlns="http://www.w3.org/2000/svg">
<path fill-rule="evenodd" clip-rule="evenodd" d="M1440 66.3231L1392 88.2608C1344 110.198 1248 154.074 1152 154.074C1056 154.074 960 110.198 864 106.627C768 103.056 672 139.789 576 161.726C480 183.664 384 190.807 288 180.093C192 168.869 96 139.789 48 124.994L0 110.198V0H48C96 0 192 0 288 0C384 0 480 0 576 0C672 0 768 0 864 0C960 0 1056 0 1152 0C1248 0 1344 0 1392 0H1440V66.3231Z" fill="#7BF39A"/>
</svg>
