<svg width="1440" height="185" viewBox="0 0 1440 185" fill="none" xmlns="http://www.w3.org/2000/svg">
<path fill-rule="evenodd" clip-rule="evenodd" d="M0 118.677L48 96.7392C96 74.8016 192 30.9263 288 30.9263C384 30.9263 480 74.8016 576 78.3728C672 81.9441 768 45.2112 864 23.2736C960 1.33595 1056 -5.80654 1152 4.90719C1248 16.1311 1344 45.2112 1392 60.0064L1440 74.8016V185H1392C1344 185 1248 185 1152 185C1056 185 960 185 864 185C768 185 672 185 576 185C480 185 384 185 288 185C192 185 96 185 48 185H0V118.677Z" fill="#7BF39A"/>
</svg>
