<svg width="1440" height="128" viewBox="0 0 1440 128" fill="none" xmlns="http://www.w3.org/2000/svg">
<path fill-rule="evenodd" clip-rule="evenodd" d="M1440 0L1400 23.733C1360 47.0568 1280 94.1136 1200 114.982C1120 135.442 1040 129.713 960 112.118C880 94.1136 800 64.652 720 67.9255C640 70.7898 560 105.98 480 108.844C400 112.118 320 82.6563 240 79.3828C160 76.5184 80 100.251 40 112.118L0 123.575V0H40C80 0 160 0 240 0C320 0 400 0 480 0C560 0 640 0 720 0C800 0 880 0 960 0C1040 0 1120 0 1200 0C1280 0 1360 0 1400 0H1440Z" fill="#FFCF03"/>
</svg>
