<svg width="1440" height="176" viewBox="0 0 1440 176" fill="none" xmlns="http://www.w3.org/2000/svg">
<path fill-rule="evenodd" clip-rule="evenodd" d="M1440 58.4402H1406C1371 58.4402 1303 58.4402 1234 58.4402C1166 58.4402 1097 58.4402 1029 68.6332C960 78.1467 891 97.8533 823 112.124C754 127.073 686 136.587 617 136.587C549 136.587 480 127.073 411 112.124C343 97.8533 274 78.1467 206 58.4402C137 38.7336 69 19.7066 34 9.51351L0 0V176H34C69 176 137 176 206 176C274 176 343 176 411 176C480 176 549 176 617 176C686 176 754 176 823 176C891 176 960 176 1029 176C1097 176 1166 176 1234 176C1303 176 1371 176 1406 176H1440V58.4402Z" fill="#FFCF03"/>
</svg>
