<svg width="83" height="83" viewBox="0 0 83 83" fill="none" xmlns="http://www.w3.org/2000/svg">
<path d="M0 5.91133C0 2.68109 2.74669 0 6.13966 0H76.5841C79.9771 0 82.7238 2.64879 82.7238 5.91133V76.7827C82.7238 80.0129 79.9771 82.694 76.5841 82.694H6.13966C2.74669 82.694 0 80.0452 0 76.7827V5.91133Z" fill="#006699"/>
<path d="M25.1404 69.1909V31.9787H12.7641V69.1909H25.1404ZM18.9684 26.8749C23.2661 26.8749 25.9482 24.0323 25.9482 20.4467C25.8836 16.7966 23.2661 14.0186 19.0653 14.0186C14.8322 14.0186 12.0532 16.7966 12.0532 20.479C12.0532 24.0323 14.7353 26.9072 18.9038 26.9072H18.9684V26.8749ZM31.9909 69.1909H44.3672V48.4529C44.3672 47.3223 44.4641 46.1917 44.7873 45.4164C45.6597 43.2199 47.6955 40.8941 51.1208 40.8941C55.6124 40.8941 57.3897 44.3182 57.3897 49.2927V69.2233H69.7983V47.9037C69.7983 36.4687 63.6909 31.1065 55.5801 31.1065C53.3071 31.0187 51.0541 31.5605 49.0697 32.6721C47.0853 33.7836 45.4467 35.4217 44.3349 37.4055H44.3995V31.9787H31.9909C32.1525 35.4673 31.9909 69.1909 31.9909 69.1909Z" fill="white"/>
</svg>
